PathFileType	4	(X/Y/Z)	C:/Users/opensim2020/Desktop/walking_exp_matlab/subject02_walking04_straight_02.trc																																																																																																																												
DataRate	CameraRate	NumFrames	NumMarkers	Units	OrigDataRate	OrigDataStartFrame	OrigNumFrames																																																																																																																								
100	100	6	42	mm	100	1496	220																																																																																																																								
Frame#	Time	LFHD			RFHD			LBHD			RBHD			C7			T10			CLAV			STRN			RBAK			LSHO			LUPA			LELB			LFRM			LWRA			LWRB			LFIN			RSHO			RUPA			RELB			RFRM			RWRA			RWRB			RFIN			LASI			RASI			LPSI			RPSI			LTHI			LKNE			LTIB			LANK			LHEE			LTOE			RTHI			RKNE			RTIB			RANK			RHEE			RTOE			*39			*40			*41		
		X1	Y1	Z1	X2	Y2	Z2	X3	Y3	Z3	X4	Y4	Z4	X5	Y5	Z5	X6	Y6	Z6	X7	Y7	Z7	X8	Y8	Z8	X9	Y9	Z9	X10	Y10	Z10	X11	Y11	Z11	X12	Y12	Z12	X13	Y13	Z13	X14	Y14	Z14	X15	Y15	Z15	X16	Y16	Z16	X17	Y17	Z17	X18	Y18	Z18	X19	Y19	Z19	X20	Y20	Z20	X21	Y21	Z21	X22	Y22	Z22	X23	Y23	Z23	X24	Y24	Z24	X25	Y25	Z25	X26	Y26	Z26	X27	Y27	Z27	X28	Y28	Z28	X29	Y29	Z29	X30	Y30	Z30	X31	Y31	Z31	X32	Y32	Z32	X33	Y33	Z33	X34	Y34	Z34	X35	Y35	Z35	X36	Y36	Z36	X37	Y37	Z37	X38	Y38	Z38	X39	Y39	Z39	X40	Y40	Z40	X41	Y41	Z41	X42	Y42	Z42
																																																																																																																															
1	0	-1113.72314	1721.44531	-1417.84082	-1129.99927	1695.92078	-1276.91797	-1245.10767	1651.50439	-1443.21716	-1272.92139	1626.16699	-1305.04407	-1316.50793	1514.13025	-1370.47424	-1382.83423	1239.50842	-1355.1842	-1183.09875	1434.93372	-1388.74756	-1139.64197	1262.77161	-1385.24207	-1380.09851	1341.65234	-1302.32605	-1256.67114	1483.80151	-1553.80505	-1267.27991	1296.68103	-1656.56262	-1248.64734	1163.99695	-1705.18384	-1172.44897	1064.23352	-1754.97388	-1048.81494	1008.82312	-1780.98193	-1094.65125	977.16693	-1791.7677	-1046.02002	945.69824	-1822.77234	-1230.37158	1470.08203	-1187.6554	-1279.4668	1285.13037	-1103.15063	-1284.54956	1138.73901	-1085.25439	-1271.01343	1019.49738	-1064.56824	-1238.67798	888.63635	-1081.02722	-1285.69116	890.88165	-1049.24719	-1253.52087	826.12555	-1044.48694	-1180.32581	962.17944	-1514.02283	-1130.33423	966.21497	-1262.63611	-1369.06104	1017.64819	-1392.74255	-1352.61755	1022.33875	-1277.47327	-1328.74805	673.23883	-1546.47058	-1406.73157	490.2644	-1512.84607	-1545.51379	354.00974	-1492.17761	-1644.67334	151.66161	-1455.83972	-1671.61108	143.51909	-1396.32471	-1532.94666	40.0857	-1488.47864	-1130.18213	670.68658	-1187.98401	-1080.12817	472.02518	-1246.92969	-1083.66846	283.23074	-1247.151	-1078.7655	92.5165	-1294.05884	-1111.91992	41.25526	-1350.99792	-923.5083	47.67771	-1298.11731	-1222.13208	1785.79407	-1334.80847	-2845.77124	1033.78406	3357.13452	NaN	NaN	NaN
2	0.01	-1103.76392	1722.68311	-1417.10364	-1120.58911	1697.16418	-1276.47107	-1235.1095	1652.83838	-1442.88171	-1263.28125	1627.32336	-1304.86255	-1306.71497	1515.15723	-1370.38477	-1372.38745	1240.33667	-1355.22607	-1172.97913	1436.53113	-1388.7146	-1128.90088	1264.30554	-1384.84009	-1369.72314	1342.50854	-1302.19055	-1246.39795	1485.42505	-1553.55408	-1257.98584	1297.78125	-1655.42102	-1241.03198	1164.59668	-1703.11536	-1165.15515	1064.19556	-1752.12024	-1041.66895	1007.91351	-1776.88867	-1087.56897	976.70361	-1788.37561	-1038.82263	945.16052	-1819.03857	-1220.44507	1471.6051	-1187.68359	-1269.36865	1286.66467	-1103.00647	-1274.65393	1140.42432	-1085.60889	-1261.64539	1021.14832	-1064.62866	-1230.85889	889.9989	-1080.59021	-1277.62622	892.68921	-1048.81909	-1246.61438	827.40607	-1043.83447	-1168.70801	963.45612	-1512.63513	-1119.02686	968.68665	-1262.02039	-1357.38733	1019.02759	-1392.87671	-1341.65723	1024.0271	-1277.15564	-1315.58521	673.5379	-1546.59827	-1390.70386	490.61194	-1515.38672	-1532.50403	358.02292	-1494.17322	-1637.00989	158.81726	-1457.92688	-1663.43774	152.5407	-1398.13354	-1532.06433	40.00893	-1488.30286	-1119.50134	671.66034	-1188.83252	-1071.74976	472.44318	-1247.63013	-1079.22705	283.33011	-1248.1842	-1077.62866	92.60259	-1294.62988	-1111.4751	41.22593	-1351.04297	-922.76123	46.74322	-1298.33557	-1212.48828	1787.17334	-1334.44812	-2845.07813	1033.82117	3360.21631	NaN	NaN	NaN
3	0.02	-1093.84448	1724.13647	-1416.47278	-1110.97632	1698.40454	-1275.86023	-1225.15955	1654.2467	-1442.58154	-1253.58826	1628.55249	-1304.72754	-1297.10632	1516.14465	-1370.41943	-1361.91357	1241.29968	-1354.95276	-1162.81812	1437.97498	-1388.35596	-1118.32703	1266.15906	-1384.84253	-1359.448	1343.41418	-1302.31921	-1236.24829	1487.07813	-1553.02295	-1248.80664	1299.36731	-1654.66516	-1233.5155	1165.49487	-1700.99658	-1158.19263	1064.22498	-1749.19263	-1034.9895	1006.72388	-1772.46899	-1081.03833	976.03693	-1784.81567	-1032.23938	944.20258	-1814.9657	-1210.84082	1473.52441	-1187.83936	-1258.81555	1288.38696	-1102.87524	-1264.35022	1142.26538	-1086.01062	-1252.50781	1023.10535	-1064.77454	-1222.74976	891.43762	-1080.24048	-1269.57996	894.69403	-1048.02515	-1239.20593	828.97101	-1043.36035	-1157.12939	964.92719	-1510.82104	-1107.79993	971.24609	-1261.32263	-1346.21167	1020.39355	-1392.86121	-1330.71729	1025.35022	-1276.8894	-1301.63867	673.39496	-1546.66479	-1373.24023	490.1048	-1517.98767	-1518.04944	361.81714	-1496.19031	-1627.71826	165.91765	-1459.89709	-1653.11035	161.21962	-1399.67188	-1530.90295	40.45071	-1488.32629	-1108.62866	672.16516	-1189.2915	-1064.63	472.12439	-1248.36646	-1075.79431	283.18146	-1249.24622	-1076.37341	92.74017	-1295.31372	-1111.14294	41.31169	-1351.30627	-921.9848	46.30396	-1298.92993	-1202.72498	1788.39514	-1333.87354	-2845.90039	1033.67371	3357.1333	NaN	NaN	NaN
4	0.03	-1083.96387	1725.48633	-1415.61487	-1101.51208	1699.54041	-1275.10071	-1215.28247	1655.79089	-1442.40393	-1244.07092	1629.91211	-1304.61426	-1287.62842	1517.17236	-1370.32117	-1351.42346	1242.34949	-1354.4823	-1152.88806	1439.77539	-1388.49768	-1107.8645	1267.96509	-1384.71216	-1349.23694	1344.39282	-1302.33923	-1226.48022	1488.92566	-1552.84619	-1239.28589	1300.45764	-1653.05298	-1226.05652	1166.48962	-1698.96436	-1151.49341	1064.2135	-1746.17188	-1028.6344	1005.13629	-1767.87842	-1074.92322	975.14258	-1781.026	-1026.26599	943.02448	-1810.91846	-1201.37061	1475.48254	-1187.95313	-1248.17041	1290.30237	-1102.79114	-1253.89539	1144.17725	-1086.50732	-1242.96997	1025.17029	-1064.64758	-1214.25549	892.99884	-1079.75598	-1260.91309	896.87701	-1047.50452	-1231.34839	830.73346	-1042.80945	-1146.50269	966.80634	-1509.43018	-1096.90247	973.57001	-1260.36353	-1335.42969	1021.78271	-1392.69092	-1319.85425	1026.42053	-1276.63037	-1287.11548	672.7735	-1546.9408	-1355.03528	489.51639	-1520.93713	-1501.94348	365.15814	-1498.66174	-1616.69543	172.82607	-1462.19458	-1641.6355	169.96152	-1401.65015	-1528.86121	40.85067	-1488.05676	-1098.56299	672.25641	-1189.87988	-1058.88538	471.63193	-1248.84204	-1073.46094	282.89563	-1250.25598	-1075.55823	92.74383	-1295.99146	-1111.11768	41.51251	-1351.65588	-921.44293	45.83369	-1299.40027	-1193.03308	1789.81128	-1333.42627	-2845.79468	1033.79138	3357.09619	NaN	NaN	NaN
5	0.04	-1074.3075	1727.14832	-1415.28601	-1092.01501	1700.89954	-1274.66113	-1205.48218	1657.43115	-1442.23242	-1234.54663	1631.30969	-1304.48499	-1278.10217	1518.32947	-1370.31445	-1341.07629	1243.521	-1353.76221	-1142.98706	1441.54053	-1388.41357	-1097.56116	1269.63965	-1384.36804	-1336.97961	1344.52136	-1300.45728	-1216.80969	1490.55298	-1552.27881	-1230.15564	1302.02551	-1652.21582	-1218.64575	1167.50708	-1696.79443	-1145.09448	1064.13562	-1743.15881	-1022.69659	1003.20502	-1763.28357	-1069.18079	973.89758	-1777.19983	-1020.55029	941.02899	-1806.2644	-1191.90173	1477.55249	-1188.05139	-1238.3728	1292.26526	-1102.7677	-1243.36084	1146.15869	-1086.78833	-1233.10156	1027.22913	-1064.65674	-1205.09753	894.72162	-1079.52271	-1251.56775	899.25873	-1047.40906	-1222.78333	832.58777	-1042.41138	-1135.70911	968.39661	-1507.67676	-1086.36133	975.55518	-1259.30835	-1325.17834	1023.21088	-1392.38855	-1309.19177	1027.42297	-1276.28528	-1271.94641	671.53729	-1547.39624	-1335.94482	488.20218	-1523.57996	-1484.30286	367.53177	-1501.29089	-1604.02673	179.26245	-1464.60266	-1628.67969	178.52345	-1403.7583	-1525.97729	41.68236	-1487.83411	-1089.73022	672.35046	-1189.91418	-1054.06274	471.2081	-1248.94128	-1071.1062	282.77808	-1250.84888	-1074.88098	92.91661	-1296.51929	-1110.91846	41.48327	-1351.75818	-920.89587	45.52924	-1299.80981	-1183.47925	1791.28918	-1332.99219	-2845.77148	1033.91821	3357.25024	NaN	NaN	NaN
6	0.05	-1064.61414	1728.64563	-1414.6676	-1082.8186	1702.49072	-1274.4447	-1195.79053	1659.02808	-1442.14539	-1225.19861	1632.75842	-1304.48535	-1268.49121	1519.68091	-1370.16431	-1330.81299	1244.78003	-1352.91589	-1133.22681	1443.32056	-1388.41846	-1087.41516	1271.45398	-1384.27063	-1328.98047	1346.66248	-1302.02429	-1207.57031	1492.42114	-1552.17749	-1221.22632	1303.50635	-1651.29321	-1211.36121	1168.52112	-1694.73376	-1138.9552	1063.93591	-1740.18152	-1017.13361	1000.93304	-1758.60974	-1063.91785	972.92114	-1773.65369	-1015.43518	939.06885	-1801.89136	-1182.27051	1479.54211	-1188.12585	-1227.46045	1294.24707	-1102.8667	-1232.8833	1148.21606	-1087.04248	-1222.5498	1029.40784	-1064.64502	-1195.81274	896.78394	-1079.13306	-1242.10217	901.44952	-1046.91138	-1213.85327	834.51898	-1041.96399	-1125.52368	970.1109	-1506.08252	-1076.1604	977.20288	-1258.37512	-1315.38464	1024.5918	-1391.93274	-1298.71826	1028.46643	-1275.88989	-1256.51709	670.28918	-1548.1427	-1316.35449	486.78259	-1526.21863	-1465.90002	369.57056	-1504.03137	-1589.90112	185.58113	-1467.09937	-1614.7804	186.91393	-1405.91772	-1521.19128	43.16685	-1487.25879	-1082.63696	672.97534	-1190.53833	-1049.71082	471.06595	-1249.01941	-1068.54358	282.74176	-1251.04028	-1074.18127	93.03557	-1296.84473	-1110.82068	41.54742	-1351.88867	-920.48785	45.32695	-1300.1604	-1173.9563	1792.69617	-1332.58582	-2845.78809	1033.82581	3357.27026	NaN	NaN	NaN
